<svg id="Layer_1" data-name="Layer 1" xmlns="http://www.w3.org/2000/svg" viewBox="0 0 490.83 181.29"><text transform="translate(25.56 170.25)" style="font-size:34.282981872558594px;fill:#323f46;font-family:NexaLight, Nexa Light">D<tspan x="24.31" y="0" style="letter-spacing:0.010981099752333294em">E</tspan><tspan x="45.73" y="0">VE</tspan><tspan x="89.89" y="0" style="letter-spacing:-0.02097945516885466em">L</tspan><tspan x="108.02" y="0">OPM</tspan><tspan x="186.05" y="0" style="letter-spacing:0.020993697840388167em">E</tspan><tspan x="207.82" y="0" style="letter-spacing:0.000028485343067012436em">NT SERVI</tspan><tspan x="357.46" y="0" style="letter-spacing:0.030992053256909534em">C</tspan><tspan x="381.6" y="0" style="letter-spacing:0.020993697840388167em">E</tspan><tspan x="403.37" y="0">S</tspan></text><text transform="translate(0 117.19)" style="font-size:97.95138549804688px;fill:#231f20;font-family:NexaBold, Nexa Bold"><tspan style="letter-spacing:0.01098679584293842em">d</tspan><tspan x="61.61" y="0" style="letter-spacing:-0.01098679584293842em">e</tspan><tspan x="117.64" y="0">von</tspan><tspan x="287.48" y="0" style="letter-spacing:-0.023987505261442683em">a</tspan><tspan x="344.98" y="0">uts</tspan></text><path d="M296,187.86a4,4,0,0,0-3.32,0l-4.28,2.25c-.91.47-1.51,0-1.34-1l.82-4.76a4,4,0,0,0-1-3.16l-3.46-3.38c-.74-.71-.51-1.42.51-1.57l4.79-.69a4,4,0,0,0,2.68-2l2.14-4.33c.46-.93,1.2-.93,1.66,0l2.14,4.34a4,4,0,0,0,2.68,1.95l4.79.69c1,.15,1.25.86.51,1.57l-3.46,3.38a4,4,0,0,0-1,3.16l.82,4.76c.17,1-.43,1.45-1.34,1Z" transform="translate(-187 -130)" style="fill:#fbc111"/><path d="M391.53,185.82a4,4,0,0,0-3.31,0l-4.28,2.25c-.91.48-1.52,0-1.34-1l.82-4.77a4,4,0,0,0-1-3.15l-3.46-3.38c-.74-.71-.51-1.43.51-1.58l4.79-.69a4,4,0,0,0,2.68-1.95l2.14-4.33c.45-.93,1.2-.93,1.66,0l2.14,4.33a4,4,0,0,0,2.68,1.95l4.78.69c1,.15,1.25.87.51,1.58l-3.46,3.38a4,4,0,0,0-1,3.15l.82,4.77c.17,1-.43,1.45-1.34,1Z" transform="translate(-187 -130)" style="fill:#fbc111"/><path d="M333.91,164.72a7.25,7.25,0,0,0-6,0l-7.71,4.05c-1.64.86-2.73.07-2.42-1.76l1.48-8.58a7.21,7.21,0,0,0-1.85-5.68l-6.24-6.09c-1.33-1.29-.91-2.57.93-2.84l8.61-1.25a7.2,7.2,0,0,0,4.84-3.51l3.85-7.81c.82-1.67,2.17-1.67,3,0l3.86,7.81a7.18,7.18,0,0,0,4.83,3.51l8.62,1.25c1.83.27,2.25,1.55.92,2.84l-6.23,6.09a7.21,7.21,0,0,0-1.85,5.68L344,167c.32,1.83-.77,2.62-2.41,1.76Z" transform="translate(-187 -130)" style="fill:#fbc111"/></svg>