<svg id="Layer_1" data-name="Layer 1" xmlns="http://www.w3.org/2000/svg" viewBox="0 0 530.75 932"><defs><style>.cls-1{fill:#ff0;}.cls-2{fill:#323f46;}.cls-3{fill:#b9c9d2;}.cls-4{fill:#2a353c;}.cls-5{fill:#fff;}.cls-6{fill:#bec3c2;}.cls-7{opacity:0.51;font-size:63.02px;fill:lime;font-family:Arial-Black, Arial Black;font-weight:800;}</style></defs><path class="cls-1" d="M732.72,465.27c-2.43-24.65-24.64-44.8-49.4-44.79h-362c-24.76,0-47,20.14-49.41,44.79L255.1,637.63c-2.43,24.64,15.89,44.81,40.65,44.81h59.32V892.07H467.64V780.69c0-24.76,15.6-34.23,34.66-34.23S537,755.93,537,780.69V892.07H649.55V682.44h59.32c24.75,0,43.07-20.17,40.65-44.81Z" transform="translate(-230.25 -33)"/><circle class="cls-2" cx="272.05" cy="246.77" r="174.46"/><path class="cls-3" d="M388.58,223.55a11.07,11.07,0,0,1-5.73-1.58,11.27,11.27,0,0,1-3.93-15.44A144.21,144.21,0,0,1,502.3,136.31a11.26,11.26,0,1,1,0,22.51,121.6,121.6,0,0,0-104,59.24A11.21,11.21,0,0,1,388.58,223.55Z" transform="translate(-230.25 -33)"/><path class="cls-4" d="M600.63,135.7A174.41,174.41,0,0,1,358.25,378.11,174.43,174.43,0,1,0,600.63,135.7Z" transform="translate(-230.25 -33)"/><path class="cls-2" d="M674.69,917.23a25.14,25.14,0,0,0-25.14-25.16H537v61.68h137.7Z" transform="translate(-230.25 -33)"/><path class="cls-2" d="M329.92,917.23a25.14,25.14,0,0,1,25.15-25.16H467.64v61.68H329.92Z" transform="translate(-230.25 -33)"/><rect class="cls-5" x="199.63" y="490.72" width="144.84" height="86.31"/><path class="cls-6" d="M573.58,811.65h39.35a11.26,11.26,0,1,0,0-22.52H573.58a11.26,11.26,0,0,0,0,22.52Z" transform="translate(-230.25 -33)"/><path class="cls-6" d="M612.93,818.22H573.58a11.26,11.26,0,0,0,0,22.51h39.35a11.26,11.26,0,1,0,0-22.51Z" transform="translate(-230.25 -33)"/><path class="cls-6" d="M331.17,573.44H291.82a11.25,11.25,0,1,0,0,22.5h39.35a11.25,11.25,0,1,0,0-22.5Z" transform="translate(-230.25 -33)"/><path class="cls-6" d="M291.82,566.89h39.35a11.26,11.26,0,0,0,0-22.52H291.82a11.26,11.26,0,0,0,0,22.52Z" transform="translate(-230.25 -33)"/><path class="cls-6" d="M391.67,811.65H431a11.26,11.26,0,0,0,0-22.52H391.67a11.26,11.26,0,1,0,0,22.52Z" transform="translate(-230.25 -33)"/><path class="cls-6" d="M431,818.22H391.67a11.26,11.26,0,1,0,0,22.51H431a11.26,11.26,0,0,0,0-22.51Z" transform="translate(-230.25 -33)"/><path class="cls-2" d="M515,566.89a12.67,12.67,0,1,1-12.68-12.66A12.7,12.7,0,0,1,515,566.89Z" transform="translate(-230.25 -33)"/><path class="cls-2" d="M546.64,566.89A12.67,12.67,0,1,1,534,554.23,12.7,12.7,0,0,1,546.64,566.89Z" transform="translate(-230.25 -33)"/><path class="cls-2" d="M483.31,566.89a12.66,12.66,0,1,1-12.67-12.66A12.68,12.68,0,0,1,483.31,566.89Z" transform="translate(-230.25 -33)"/><path class="cls-4" d="M592.09,555.63H586V523.72a11.26,11.26,0,0,0-11.26-11.25H429.89a11.25,11.25,0,0,0-11.26,11.25v31.91h-6.11a11.25,11.25,0,1,0,0,22.5h6.11V610a11.24,11.24,0,0,0,11.26,11.25H574.73A11.26,11.26,0,0,0,586,610V578.13h6.1a11.25,11.25,0,1,0,0-22.5Zm-28.62,43.15H441.14V535H563.47Z" transform="translate(-230.25 -33)"/><path class="cls-6" d="M673.43,573.44H712.8a11.25,11.25,0,0,1,0,22.5H673.43a11.25,11.25,0,0,1,0-22.5Z" transform="translate(-230.25 -33)"/><path class="cls-6" d="M712.8,566.89H673.43a11.26,11.26,0,0,1,0-22.52H712.8a11.26,11.26,0,0,1,0,22.52Z" transform="translate(-230.25 -33)"/><path class="cls-2" d="M330,744.08h25.1V682.44H286.21l0,17.85A43.79,43.79,0,0,0,330,744.08Z" transform="translate(-230.25 -33)"/><path class="cls-2" d="M674.64,744.08H649.55V682.44H718.4l0,17.85A43.8,43.8,0,0,1,674.64,744.08Z" transform="translate(-230.25 -33)"/><path class="cls-4" d="M760.73,636.53l-16.8-172.36c-3-30.3-30.17-54.95-60.57-54.95H635.21A185.07,185.07,0,0,0,688,279.77c0-98.61-77.31-179.27-174.46-185.14V73.52A21.67,21.67,0,0,0,524.33,55a22,22,0,1,0-44.05,0,21.68,21.68,0,0,0,10.77,18.49V94.63C393.89,100.5,316.6,181.16,316.6,279.77a186.33,186.33,0,0,0,2.47,28.93c-51,13.92-88.82,60-88.82,115.33a119,119,0,0,0,27,75.36L243.89,636.53a51.74,51.74,0,0,0,13,40.3,51.09,51.09,0,0,0,18.06,12.71v10.75a55.12,55.12,0,0,0,55,55.06h13.84V882.76a36.38,36.38,0,0,0-25.15,34.47v36.52A11.26,11.26,0,0,0,329.92,965H467.64a11.25,11.25,0,0,0,11.25-11.25V780.69c0-18.31,10.71-25.34,23.41-25.34s23.43,7,23.43,25.34V953.75A11.26,11.26,0,0,0,537,965h137.7A11.26,11.26,0,0,0,686,953.75V917.23a36.38,36.38,0,0,0-25.15-34.47V755.35h13.84a55.14,55.14,0,0,0,55.05-55.06V689.54a50.93,50.93,0,0,0,18-12.71A51.75,51.75,0,0,0,760.73,636.53Zm-258.43-520c90,0,163.22,73.21,163.22,163.2S592.3,443,502.3,443s-163.19-73.21-163.19-163.2S412.31,116.57,502.3,116.57Zm-175,224.76a185.91,185.91,0,0,0,42.1,67.89H321.25c-23.28,0-44.56,14.49-54.65,34.86A82.2,82.2,0,0,1,264,424C264,384.44,290.93,351.53,327.3,341.33ZM330,732.83a32.57,32.57,0,0,1-32.53-32.51v-6.63h46.36v39.14ZM456.39,942.48H341.17V917.23a13.92,13.92,0,0,1,13.9-13.91H456.39Zm207.05-25.25v25.25H548.23V903.32H649.55A13.92,13.92,0,0,1,663.44,917.23Zm11.2-184.4H660.8V693.69h46.37v6.63A32.57,32.57,0,0,1,674.64,732.83ZM731,661.7a29.38,29.38,0,0,1-22.17,9.49H660.8V616.53a11.25,11.25,0,1,0-22.5,0V880.82H548.23V780.69c0-11.59-2.88-21.17-7.81-28.67a195.29,195.29,0,0,0,36.42-10,11.27,11.27,0,0,0-8.14-21c-39.92,15.42-92.85,15.42-132.8,0a11.27,11.27,0,0,0-8.12,21,195.3,195.3,0,0,0,36.4,10c-4.92,7.5-7.79,17.08-7.79,28.67V880.82H366.32V616.53a11.26,11.26,0,1,0-22.51,0v54.66H295.75a28.9,28.9,0,0,1-29.45-32.46l16.79-172.36c1.85-18.78,19.34-34.64,38.21-34.64h74.58a184.6,184.6,0,0,0,212.83,0h74.61c18.86,0,36.34,15.86,38.18,34.64l16.8,172.36A29.23,29.23,0,0,1,731,661.7Z" transform="translate(-230.25 -33)"/><text class="cls-7" transform="translate(220.45 286.33)">{Hi}</text></svg>